<?xml version="1.0" encoding="utf-8"?>
<!-- Generator: Adobe Illustrator 25.1.0, SVG Export Plug-In . SVG Version: 6.00 Build 0)  -->
<svg version="1.1" id="Layer_1" xmlns="http://www.w3.org/2000/svg" xmlns:xlink="http://www.w3.org/1999/xlink" x="0px" y="0px"
	 viewBox="0 0 2200 2200" style="enable-background:new 0 0 2200 2200;" xml:space="preserve">
<style type="text/css">
	.st0{fill:#E7E7E7;}
	.st1{fill:#B0B6B7;}
</style>
<rect x="-15" class="st0" width="2215" height="2215"/>
<g>
	<path class="st0" d="M2064.1,1100c0,258.8-101.9,493.7-267.9,666.9c-175.5,183.2-422.5,297.2-696.2,297.2s-520.8-114-696.2-297.2
		c-165.9-173.2-267.9-408.1-267.9-666.9c0-532.4,431.6-964.1,964.1-964.1S2064.1,567.6,2064.1,1100z"/>
	<circle class="st1" cx="1100" cy="757.9" r="393.9"/>
	<path class="st1" d="M1763.6,1687.2c-7.7,8.7-15.6,17.3-23.7,25.7C1578.6,1881.2,1351.5,1986,1100,1986s-478.6-104.8-639.9-273.2
		c-8.1-8.4-16-17-23.7-25.7c118.7-247,371.2-417.5,663.6-417.5S1644.9,1440.2,1763.6,1687.2z"/>
</g>
</svg>
