<svg width="570" height="472" viewBox="0 0 570 472" fill="none" xmlns="http://www.w3.org/2000/svg">
<rect x="165" width="189" height="472" fill="#273240"/>
<rect x="292.74" y="36.5891" width="4.52055" height="33.1507" fill="#FFCC00"/>
<circle cx="312.376" cy="37.3762" r="7.37616" fill="white"/>
<circle cx="313.455" cy="37.5651" r="5.3401" fill="black"/>
<circle cx="277.376" cy="37.3762" r="7.37616" fill="white"/>
<circle cx="278.455" cy="37.5651" r="5.3401" fill="black"/>
<rect x="285" y="118" width="141.75" height="354" fill="#7EABE5"/>
<circle cx="402" cy="156" r="16" fill="white"/>
<circle cx="407.5" cy="155.5" r="6.5" fill="black"/>
<circle cx="365" cy="156" r="16" fill="white"/>
<circle cx="370.5" cy="155.5" r="6.5" fill="black"/>
<path d="M0 472C2.2961e-06 445.736 5.17316 419.728 15.2241 395.463C25.275 371.198 40.0069 349.15 58.5787 330.579C77.1504 312.007 99.1982 297.275 123.463 287.224C147.728 277.173 173.736 272 200 272C226.264 272 252.272 277.173 276.537 287.224C300.802 297.275 322.85 312.007 341.421 330.579C359.993 349.15 374.725 371.198 384.776 395.463C394.827 419.728 400 445.736 400 472L0 472Z" fill="#97CE71"/>
<path d="M252 391C252 393.364 251.534 395.705 250.63 397.888C249.725 400.072 248.399 402.057 246.728 403.728C245.056 405.399 243.072 406.725 240.888 407.63C238.704 408.535 236.364 409 234 409C231.636 409 229.296 408.535 227.112 407.63C224.928 406.725 222.944 405.399 221.272 403.728C219.601 402.057 218.275 400.072 217.37 397.888C216.466 395.705 216 393.364 216 391L252 391Z" fill="#273240"/>
<path d="M209 372.5C209 377.747 204.747 382 199.5 382C194.253 382 190 377.747 190 372.5C190 367.253 194.253 363 199.5 363C204.747 363 209 367.253 209 372.5Z" fill="#273240"/>
<path d="M277 372.5C277 377.747 272.747 382 267.5 382C262.253 382 258 377.747 258 372.5C258 367.253 262.253 363 267.5 363C272.747 363 277 367.253 277 372.5Z" fill="#273240"/>
<path d="M391 296.5C391 258.116 422.116 227 460.5 227C498.884 227 530 258.116 530 296.5V472H391V296.5Z" fill="#E5E37E"/>
<circle cx="450" cy="272" r="11" fill="#273240"/>
<rect x="475" y="300" width="95" height="7" fill="#273240"/>
</svg>
