<svg width="971" height="228" viewBox="0 0 971 228" fill="none" xmlns="http://www.w3.org/2000/svg">
<path d="M280.184 132V59.296H251.512V42.4H329.592V59.296H300.92V132H280.184ZM347.825 53.536C340.401 53.536 335.409 48.672 335.409 42.4C335.409 36.128 340.401 31.264 347.825 31.264C355.249 31.264 360.241 35.872 360.241 42.016C360.241 48.672 355.249 53.536 347.825 53.536ZM337.841 132V63.136H357.809V132H337.841ZM464.533 62.112C480.917 62.112 492.693 71.584 492.693 92.576V132H472.725V95.648C472.725 84.512 467.733 79.392 459.669 79.392C450.709 79.392 444.437 85.152 444.437 97.44V132H424.469V95.648C424.469 84.512 419.733 79.392 411.413 79.392C402.581 79.392 396.309 85.152 396.309 97.44V132H376.341V63.136H395.413V71.072C400.533 65.184 408.213 62.112 417.045 62.112C426.645 62.112 434.837 65.824 439.701 73.376C445.205 66.336 454.165 62.112 464.533 62.112ZM578.797 97.824C578.797 99.36 578.541 101.536 578.413 103.2H526.317C528.237 111.776 535.533 117.024 546.029 117.024C553.325 117.024 558.573 114.848 563.309 110.368L573.933 121.888C567.533 129.184 557.933 133.024 545.517 133.024C521.709 133.024 506.221 118.048 506.221 97.568C506.221 76.96 521.965 62.112 542.957 62.112C563.181 62.112 578.797 75.68 578.797 97.824ZM543.085 77.216C533.997 77.216 527.469 82.72 526.061 91.552H559.981C558.573 82.848 552.045 77.216 543.085 77.216ZM622.939 133.536C608.731 133.536 594.395 129.312 586.459 123.168L593.499 107.552C601.051 113.056 612.315 116.896 623.067 116.896C635.355 116.896 640.347 112.8 640.347 107.296C640.347 90.528 588.251 102.048 588.251 68.768C588.251 53.536 600.539 40.864 626.011 40.864C637.275 40.864 648.795 43.552 657.115 48.8L650.715 64.544C642.395 59.808 633.819 57.504 625.883 57.504C613.595 57.504 608.859 62.112 608.859 67.744C608.859 84.256 660.955 72.864 660.955 105.76C660.955 120.736 648.539 133.536 622.939 133.536ZM714.42 62.112C733.748 62.112 748.724 75.936 748.724 97.568C748.724 119.2 733.748 133.024 714.42 133.024C705.844 133.024 698.804 130.336 693.684 124.704V156.832H673.716V63.136H692.788V71.072C697.78 65.056 705.204 62.112 714.42 62.112ZM710.964 116.64C720.948 116.64 728.5 109.472 728.5 97.568C728.5 85.664 720.948 78.496 710.964 78.496C700.98 78.496 693.428 85.664 693.428 97.568C693.428 109.472 700.98 116.64 710.964 116.64ZM788.742 62.112C809.734 62.112 821.894 71.84 821.894 92.704V132H803.206V123.424C799.494 129.696 792.326 133.024 782.214 133.024C766.086 133.024 756.486 124.064 756.486 112.16C756.486 100 765.062 91.552 786.054 91.552H801.926C801.926 82.976 796.806 77.984 786.054 77.984C778.758 77.984 771.206 80.416 766.214 84.384L759.046 70.432C766.598 65.056 777.734 62.112 788.742 62.112ZM787.206 119.584C793.862 119.584 799.622 116.512 801.926 110.24V103.2H788.23C778.886 103.2 775.942 106.656 775.942 111.264C775.942 116.256 780.166 119.584 787.206 119.584ZM859.038 72.224C863.902 65.568 872.094 62.112 882.718 62.112V80.544C881.054 80.416 879.774 80.288 878.238 80.288C867.23 80.288 859.934 86.304 859.934 99.488V132H839.966V63.136H859.038V72.224ZM945.919 132L924.159 104.992L914.559 114.464V132H894.591V37.024H914.559V90.784L943.743 63.136H967.551L938.879 92.32L970.111 132H945.919Z" fill="#273240"/>
<path d="M269.35 220.3C264.1 220.3 258.95 218.45 256.35 215.75L257.8 212.9C260.3 215.35 264.75 217.15 269.35 217.15C275.9 217.15 278.75 214.4 278.75 210.95C278.75 201.35 257.2 207.25 257.2 194.3C257.2 189.15 261.2 184.7 270.1 184.7C274.05 184.7 278.15 185.85 280.95 187.8L279.7 190.75C276.7 188.8 273.2 187.85 270.1 187.85C263.7 187.85 260.85 190.7 260.85 194.2C260.85 203.8 282.4 198 282.4 210.75C282.4 215.9 278.3 220.3 269.35 220.3ZM322.512 193.5C328.912 193.5 333.112 197.2 333.112 204.75V220H329.562V205.1C329.562 199.55 326.762 196.7 322.012 196.7C316.612 196.7 313.212 200.2 313.212 206.2V220H309.662V205.1C309.662 199.55 306.862 196.7 302.062 196.7C296.712 196.7 293.262 200.2 293.262 206.2V220H289.712V193.7H293.112V198.5C294.962 195.35 298.362 193.5 302.762 193.5C307.112 193.5 310.512 195.35 312.112 199.05C314.012 195.65 317.762 193.5 322.512 193.5ZM351.939 193.5C358.739 193.5 362.589 196.9 362.589 203.7V220H359.189V215.9C357.589 218.6 354.489 220.25 350.139 220.25C344.189 220.25 340.539 217.15 340.539 212.6C340.539 208.55 343.139 205.15 350.689 205.15H359.039V203.55C359.039 199.05 356.489 196.6 351.589 196.6C348.189 196.6 344.989 197.8 342.839 199.7L341.239 197.05C343.889 194.8 347.789 193.5 351.939 193.5ZM350.689 217.45C354.689 217.45 357.639 215.55 359.039 212.1V207.8H350.789C345.689 207.8 344.039 209.8 344.039 212.5C344.039 215.55 346.489 217.45 350.689 217.45ZM375.631 198.85C377.281 195.35 380.631 193.5 385.481 193.5V196.95C385.181 196.95 384.881 196.9 384.631 196.9C379.131 196.9 375.781 200.4 375.781 206.6V220H372.231V193.7H375.631V198.85ZM405.632 215.85L406.882 218.4C405.482 219.65 403.382 220.25 401.332 220.25C396.382 220.25 393.632 217.45 393.632 212.6V196.7H388.932V193.7H393.632V187.95H397.182V193.7H405.182V196.7H397.182V212.4C397.182 215.5 398.782 217.2 401.732 217.2C403.182 217.2 404.632 216.75 405.632 215.85ZM453.33 220L449.13 210.65H429.63L425.43 220H421.58L437.58 185H441.23L457.23 220H453.33ZM430.98 207.65H447.78L439.38 188.85L430.98 207.65ZM474.626 215.85L475.876 218.4C474.476 219.65 472.376 220.25 470.326 220.25C465.376 220.25 462.626 217.45 462.626 212.6V196.7H457.926V193.7H462.626V187.95H466.176V193.7H474.176V196.7H466.176V212.4C466.176 215.5 467.776 217.2 470.726 217.2C472.176 217.2 473.626 216.75 474.626 215.85ZM494.255 215.85L495.505 218.4C494.105 219.65 492.005 220.25 489.955 220.25C485.005 220.25 482.255 217.45 482.255 212.6V196.7H477.555V193.7H482.255V187.95H485.805V193.7H493.805V196.7H485.805V212.4C485.805 215.5 487.405 217.2 490.355 217.2C491.805 217.2 493.255 216.75 494.255 215.85ZM511.168 193.5C517.968 193.5 521.818 196.9 521.818 203.7V220H518.418V215.9C516.818 218.6 513.718 220.25 509.368 220.25C503.418 220.25 499.768 217.15 499.768 212.6C499.768 208.55 502.368 205.15 509.918 205.15H518.268V203.55C518.268 199.05 515.718 196.6 510.818 196.6C507.418 196.6 504.218 197.8 502.068 199.7L500.468 197.05C503.118 194.8 507.018 193.5 511.168 193.5ZM509.918 217.45C513.918 217.45 516.868 215.55 518.268 212.1V207.8H510.018C504.918 207.8 503.268 209.8 503.268 212.5C503.268 215.55 505.718 217.45 509.918 217.45ZM544.86 193.5C551.26 193.5 555.66 197.2 555.66 204.75V220H552.11V205.1C552.11 199.55 549.21 196.7 544.21 196.7C538.56 196.7 535.01 200.2 535.01 206.2V220H531.46V193.7H534.86V198.55C536.76 195.35 540.31 193.5 544.86 193.5ZM585.845 182.9H589.395V220H585.995V214.8C583.845 218.35 580.195 220.25 575.845 220.25C568.345 220.25 562.745 214.8 562.745 206.85C562.745 198.9 568.345 193.5 575.845 193.5C580.045 193.5 583.645 195.3 585.845 198.7V182.9ZM576.145 217.1C581.695 217.1 585.895 213 585.895 206.85C585.895 200.7 581.695 196.6 576.145 196.6C570.545 196.6 566.345 200.7 566.345 206.85C566.345 213 570.545 217.1 576.145 217.1ZM622.232 206.85C622.232 207.15 622.182 207.55 622.182 207.95H600.182C600.582 213.45 604.782 217.1 610.532 217.1C613.732 217.1 616.582 215.95 618.582 213.65L620.582 215.95C618.232 218.75 614.582 220.25 610.432 220.25C602.232 220.25 596.632 214.65 596.632 206.85C596.632 199.05 602.082 193.5 609.482 193.5C616.882 193.5 622.232 198.95 622.232 206.85ZM609.482 196.55C604.382 196.55 600.632 200.15 600.182 205.3H618.832C618.382 200.15 614.632 196.55 609.482 196.55ZM642.858 193.5C649.258 193.5 653.658 197.2 653.658 204.75V220H650.108V205.1C650.108 199.55 647.208 196.7 642.208 196.7C636.558 196.7 633.008 200.2 633.008 206.2V220H629.458V193.7H632.858V198.55C634.758 195.35 638.308 193.5 642.858 193.5ZM674.293 220.25C666.443 220.25 660.743 214.7 660.743 206.85C660.743 199 666.443 193.5 674.293 193.5C678.743 193.5 682.493 195.25 684.593 198.7L681.943 200.5C680.143 197.85 677.343 196.6 674.293 196.6C668.543 196.6 664.343 200.7 664.343 206.85C664.343 213.05 668.543 217.1 674.293 217.1C677.343 217.1 680.143 215.9 681.943 213.25L684.593 215.05C682.493 218.45 678.743 220.25 674.293 220.25ZM714.078 206.85C714.078 207.15 714.028 207.55 714.028 207.95H692.028C692.428 213.45 696.628 217.1 702.378 217.1C705.578 217.1 708.428 215.95 710.428 213.65L712.428 215.95C710.078 218.75 706.428 220.25 702.278 220.25C694.078 220.25 688.478 214.65 688.478 206.85C688.478 199.05 693.928 193.5 701.328 193.5C708.728 193.5 714.078 198.95 714.078 206.85ZM701.328 196.55C696.228 196.55 692.478 200.15 692.028 205.3H710.678C710.228 200.15 706.478 196.55 701.328 196.55ZM744.789 220.3C739.539 220.3 734.389 218.45 731.789 215.75L733.239 212.9C735.739 215.35 740.189 217.15 744.789 217.15C751.339 217.15 754.189 214.4 754.189 210.95C754.189 201.35 732.639 207.25 732.639 194.3C732.639 189.15 736.639 184.7 745.539 184.7C749.489 184.7 753.589 185.85 756.389 187.8L755.139 190.75C752.139 188.8 748.639 187.85 745.539 187.85C739.139 187.85 736.289 190.7 736.289 194.2C736.289 203.8 757.839 198 757.839 210.75C757.839 215.9 753.739 220.3 744.789 220.3ZM775.901 220.25C768.201 220.25 762.501 214.65 762.501 206.85C762.501 199.05 768.201 193.5 775.901 193.5C783.601 193.5 789.251 199.05 789.251 206.85C789.251 214.65 783.601 220.25 775.901 220.25ZM775.901 217.1C781.501 217.1 785.651 213 785.651 206.85C785.651 200.7 781.501 196.6 775.901 196.6C770.301 196.6 766.101 200.7 766.101 206.85C766.101 213 770.301 217.1 775.901 217.1ZM796.499 220V182.9H800.049V220H796.499ZM830.077 193.7H833.627V220H830.227V215.2C828.377 218.4 824.977 220.25 820.777 220.25C814.077 220.25 809.677 216.5 809.677 208.95V193.7H813.227V208.6C813.227 214.2 816.127 217.05 821.127 217.05C826.627 217.05 830.077 213.5 830.077 207.5V193.7ZM856.169 215.85L857.419 218.4C856.019 219.65 853.919 220.25 851.869 220.25C846.919 220.25 844.169 217.45 844.169 212.6V196.7H839.469V193.7H844.169V187.95H847.719V193.7H855.719V196.7H847.719V212.4C847.719 215.5 849.319 217.2 852.269 217.2C853.719 217.2 855.169 216.75 856.169 215.85ZM865.682 187.95C864.232 187.95 863.082 186.8 863.082 185.4C863.082 184.05 864.232 182.9 865.682 182.9C867.132 182.9 868.282 184 868.282 185.35C868.282 186.8 867.182 187.95 865.682 187.95ZM863.882 220V193.7H867.432V220H863.882ZM888.059 220.25C880.359 220.25 874.659 214.65 874.659 206.85C874.659 199.05 880.359 193.5 888.059 193.5C895.759 193.5 901.409 199.05 901.409 206.85C901.409 214.65 895.759 220.25 888.059 220.25ZM888.059 217.1C893.659 217.1 897.809 213 897.809 206.85C897.809 200.7 893.659 196.6 888.059 196.6C882.459 196.6 878.259 200.7 878.259 206.85C878.259 213 882.459 217.1 888.059 217.1ZM922.057 193.5C928.457 193.5 932.857 197.2 932.857 204.75V220H929.307V205.1C929.307 199.55 926.407 196.7 921.407 196.7C915.757 196.7 912.207 200.2 912.207 206.2V220H908.657V193.7H912.057V198.55C913.957 195.35 917.507 193.5 922.057 193.5ZM949.545 220.25C945.195 220.25 940.995 218.85 938.845 217L940.445 214.2C942.545 215.85 946.095 217.15 949.795 217.15C954.795 217.15 956.845 215.45 956.845 212.85C956.845 206 939.795 211.4 939.795 201C939.795 196.7 943.495 193.5 950.195 193.5C953.595 193.5 957.295 194.45 959.495 195.95L957.945 198.8C955.645 197.2 952.895 196.55 950.195 196.55C945.445 196.55 943.345 198.4 943.345 200.9C943.345 208 960.395 202.65 960.395 212.75C960.395 217.3 956.395 220.25 949.545 220.25Z" fill="#273240"/>
<path d="M0 173.004V107.69L30.7131 90.1953V190.499L0 173.004Z" fill="#273240"/>
<path d="M93.6962 35.7672L0.390625 89.8066V54.4283L93.6962 0L187.002 54.4283V173.004L93.6962 227.432L75.0351 215.769V72.7006L105.748 90.973V184.279L155.9 155.121V71.9231L93.6962 35.7672Z" fill="#273240"/>
</svg>
