<svg width="16" height="16" viewBox="0 0 16 16" fill="none" xmlns="http://www.w3.org/2000/svg">
<path fill-rule="evenodd" clip-rule="evenodd" d="M4.49774 0.500244H11.502C14.0527 0.500244 15.4927 1.94699 15.5002 4.49774V11.5027C15.5002 14.0527 14.0527 15.5002 11.502 15.5002H4.49774C1.94699 15.5002 0.500244 14.0527 0.500244 11.5027V4.49774C0.500244 1.94699 1.94699 0.500244 4.49774 0.500244ZM8.03704 12.3952C8.36029 12.3952 8.62954 12.1552 8.65954 11.8327V4.19024C8.68954 3.95774 8.57779 3.72449 8.37529 3.59774C8.16454 3.47024 7.90954 3.47024 7.70779 3.59774C7.50454 3.72449 7.39279 3.95774 7.41454 4.19024V11.8327C7.45279 12.1552 7.72204 12.3952 8.03704 12.3952ZM11.4878 12.3952C11.8028 12.3952 12.072 12.1552 12.1103 11.8327V9.37275C12.132 9.132 12.0203 8.90775 11.817 8.78025C11.6153 8.65275 11.3603 8.65275 11.1503 8.78025C10.947 8.90775 10.8353 9.132 10.8653 9.37275V11.8327C10.8953 12.1552 11.1645 12.3952 11.4878 12.3952ZM5.16452 11.8327C5.13452 12.1552 4.86527 12.3952 4.54202 12.3952C4.21952 12.3952 3.94952 12.1552 3.92027 11.8327V6.65024C3.89777 6.41699 4.00952 6.18524 4.21277 6.05774C4.41452 5.93024 4.67027 5.93024 4.87277 6.05774C5.07452 6.18524 5.18777 6.41699 5.16452 6.65024V11.8327Z" fill="#A6ABC8"/>
</svg>
