<svg width="12" height="15" viewBox="0 0 12 15" fill="none" xmlns="http://www.w3.org/2000/svg">
<path d="M9.3296 1.13605L9.40631 1.18061C10.0691 1.56562 10.6218 1.88667 11.0264 2.20091C11.4536 2.53259 11.7926 2.9133 11.9346 3.44655C12.0766 3.97981 11.9722 4.48008 11.7671 4.98223C11.6247 5.33077 11.4154 5.72244 11.1631 6.1692L10.622 5.84556L10.615 5.84145L4.71634 2.41461L4.1647 2.08745C4.42031 1.64941 4.65061 1.27528 4.87734 0.979632C5.20696 0.549826 5.58531 0.208688 6.11526 0.0658029C6.64521 -0.0770823 7.14238 0.0279985 7.64142 0.234381C8.11421 0.429909 8.66687 0.751001 9.3296 1.13605Z" fill="#273240"/>
<path d="M3.52467 3.20016L0.562276 8.36307C0.308633 8.8043 0.108078 9.15317 0.0337744 9.55C-0.0405292 9.94683 0.0201049 10.3452 0.0967893 10.8491L0.11745 10.9853C0.259 11.9206 0.375674 12.6916 0.551648 13.2763C0.735689 13.8877 1.01861 14.417 1.57503 14.7402C2.13146 15.0635 2.72843 15.0454 3.34671 14.9001C3.93789 14.7611 4.65978 14.4773 5.53559 14.1329L5.66313 14.0828C6.13512 13.8977 6.50831 13.7514 6.8127 13.4882C7.11708 13.2251 7.31706 12.8758 7.56998 12.4342L10.5254 7.28332L9.9727 6.95278L4.07008 3.52365L3.52467 3.20016Z" fill="#273240"/>
</svg>
