<svg width="14" height="16" viewBox="0 0 14 16" fill="none" xmlns="http://www.w3.org/2000/svg">
<path fill-rule="evenodd" clip-rule="evenodd" d="M1.79581 1.21619C1.87466 1.15889 1.95621 1.10618 2.04095 1.05769C2.06817 1.11832 2.10667 1.17511 2.15646 1.2249C3.12438 2.19277 3.88412 2.95131 4.55384 3.48734C5.23186 4.02999 5.86681 4.38619 6.59839 4.50206C7.04535 4.57285 7.50067 4.57285 7.94763 4.50206C8.65875 4.38943 9.27848 4.04976 9.93529 3.5325C10.5837 3.02184 11.3117 2.30208 12.228 1.38641C12.2574 1.35703 12.2829 1.3252 12.3044 1.29159C12.5815 1.50744 12.8271 1.76129 13.0338 2.04581C13.75 3.03155 13.75 4.4377 13.75 7.25V8.75C13.75 11.5623 13.75 12.9684 13.0338 13.9542C12.8025 14.2725 12.5225 14.5525 12.2042 14.7838C11.2184 15.5 9.8123 15.5 7 15.5C4.1877 15.5 2.78155 15.5 1.79581 14.7838C1.47745 14.5525 1.19748 14.2725 0.966186 13.9542C0.25 12.9684 0.25 11.5623 0.25 8.75V7.25C0.25 4.4377 0.25 3.03155 0.966186 2.04581C1.19748 1.72745 1.47745 1.44748 1.79581 1.21619ZM4 5.9375C3.68934 5.9375 3.4375 6.18934 3.4375 6.5C3.4375 6.81066 3.68934 7.0625 4 7.0625H10C10.3107 7.0625 10.5625 6.81066 10.5625 6.5C10.5625 6.18934 10.3107 5.9375 10 5.9375H4ZM4 8.9375C3.68934 8.9375 3.4375 9.18934 3.4375 9.5C3.4375 9.81066 3.68934 10.0625 4 10.0625H10C10.3107 10.0625 10.5625 9.81066 10.5625 9.5C10.5625 9.18934 10.3107 8.9375 10 8.9375H4ZM4 11.9375C3.68934 11.9375 3.4375 12.1893 3.4375 12.5C3.4375 12.8107 3.68934 13.0625 4 13.0625H10C10.3107 13.0625 10.5625 12.8107 10.5625 12.5C10.5625 12.1893 10.3107 11.9375 10 11.9375H4Z" fill="#A6ABC8"/>
<path d="M7 0.5C9.02495 0.5 10.3209 0.5 11.2558 0.767354C10.4155 1.60542 9.78699 2.21731 9.23925 2.64867C8.66209 3.10321 8.21968 3.31995 7.77164 3.39091C7.44128 3.44323 7.10474 3.44323 6.77437 3.39091C6.31347 3.31791 5.85863 3.09068 5.25682 2.60901C4.69647 2.16053 4.05176 1.52782 3.18745 0.664756C4.08155 0.5 5.27681 0.5 7 0.5Z" fill="#A6ABC8"/>
</svg>
