<svg width="14" height="17" viewBox="0 0 14 17" fill="none" xmlns="http://www.w3.org/2000/svg">
<path fill-rule="evenodd" clip-rule="evenodd" d="M3.625 3.0995C2.84394 3.19211 2.27102 3.37092 1.79581 3.71619C1.47745 3.94748 1.19748 4.22745 0.966186 4.54581C0.25 5.53155 0.25 6.9377 0.25 9.75C0.25 12.5623 0.25 13.9684 0.966186 14.9542C1.19748 15.2725 1.47745 15.5525 1.79581 15.7838C2.78155 16.5 4.1877 16.5 7 16.5C7.62921 16.5 8.18803 16.5 8.6875 16.492L8.6875 16.4394C8.68745 15.8004 8.68742 15.4111 8.74059 15.0754C9.03286 13.2301 10.4801 11.7829 12.3254 11.4906C12.6611 11.4374 13.0504 11.4374 13.6894 11.4375L13.742 11.4375C13.75 10.9381 13.75 10.3794 13.75 9.75035C13.75 6.93805 13.75 5.53155 13.0338 4.54581C12.8025 4.22745 12.5225 3.94748 12.2042 3.71619C11.729 3.37092 11.1561 3.19211 10.375 3.0995V3.75C10.375 4.37132 9.87132 4.875 9.25 4.875C8.62868 4.875 8.125 4.37132 8.125 3.75V3.00211C7.77693 3 7.40289 3 7 3C6.59711 3 6.22307 3 5.875 3.00211V3.75C5.875 4.37132 5.37132 4.875 4.75 4.875C4.12868 4.875 3.625 4.37132 3.625 3.75V3.0995ZM3.25 7.5C3.66421 7.5 4 7.16421 4 6.75C4 6.33579 3.66421 6 3.25 6C2.83579 6 2.5 6.33579 2.5 6.75C2.5 7.16421 2.83579 7.5 3.25 7.5ZM4 9.75C4 10.1642 3.66421 10.5 3.25 10.5C2.83579 10.5 2.5 10.1642 2.5 9.75C2.5 9.33579 2.83579 9 3.25 9C3.66421 9 4 9.33579 4 9.75ZM7 7.5C7.41421 7.5 7.75 7.16421 7.75 6.75C7.75 6.33579 7.41421 6 7 6C6.58579 6 6.25 6.33579 6.25 6.75C6.25 7.16421 6.58579 7.5 7 7.5ZM7.75 9.75C7.75 10.1642 7.41421 10.5 7 10.5C6.58579 10.5 6.25 10.1642 6.25 9.75C6.25 9.33579 6.58579 9 7 9C7.41421 9 7.75 9.33579 7.75 9.75ZM7 13.5C7.41421 13.5 7.75 13.1642 7.75 12.75C7.75 12.3358 7.41421 12 7 12C6.58579 12 6.25 12.3358 6.25 12.75C6.25 13.1642 6.58579 13.5 7 13.5ZM11.5 6.75C11.5 7.16421 11.1642 7.5 10.75 7.5C10.3358 7.5 10 7.16421 10 6.75C10 6.33579 10.3358 6 10.75 6C11.1642 6 11.5 6.33579 11.5 6.75ZM10.75 10.5C11.1642 10.5 11.5 10.1642 11.5 9.75C11.5 9.33579 11.1642 9 10.75 9C10.3358 9 10 9.33579 10 9.75C10 10.1642 10.3358 10.5 10.75 10.5ZM4 12.75C4 13.1642 3.66421 13.5 3.25 13.5C2.83579 13.5 2.5 13.1642 2.5 12.75C2.5 12.3358 2.83579 12 3.25 12C3.66421 12 4 12.3358 4 12.75Z" fill="#273240"/>
<path d="M13.701 12.5625C13.0182 12.5626 12.7327 12.5651 12.5014 12.6017C11.1375 12.8178 10.0678 13.8875 9.85174 15.2514C9.81511 15.4827 9.8126 15.7682 9.8125 16.451C10.8922 16.3802 11.6216 16.2071 12.2042 15.7838C12.5225 15.5525 12.8025 15.2725 13.0338 14.9542C13.4571 14.3716 13.6302 13.6422 13.701 12.5625Z" fill="#273240"/>
<path d="M5.3125 1.5C5.3125 1.18934 5.06066 0.9375 4.75 0.9375C4.43934 0.9375 4.1875 1.18934 4.1875 1.5V3.75C4.1875 4.06066 4.43934 4.3125 4.75 4.3125C5.06066 4.3125 5.3125 4.06066 5.3125 3.75V1.5Z" fill="#273240"/>
<path d="M9.8125 1.5C9.8125 1.18934 9.56066 0.9375 9.25 0.9375C8.93934 0.9375 8.6875 1.18934 8.6875 1.5V3.75C8.6875 4.06066 8.93934 4.3125 9.25 4.3125C9.56066 4.3125 9.8125 4.06066 9.8125 3.75V1.5Z" fill="#273240"/>
</svg>
