<svg width="13" height="15" viewBox="0 0 13 15" fill="none" xmlns="http://www.w3.org/2000/svg">
<path fill-rule="evenodd" clip-rule="evenodd" d="M11.1465 9.69724L11.3414 8.33457C11.4013 7.91531 11.4561 7.53203 11.5049 7.18044C11.605 6.4579 11.655 6.09663 11.4331 5.84952C11.2111 5.60241 10.8295 5.60241 10.0664 5.60241H2.93358C2.1705 5.60241 1.78896 5.60241 1.56696 5.84952C1.34497 6.09663 1.39504 6.4579 1.49516 7.18043C1.5439 7.53213 1.59868 7.91516 1.65866 8.33457L1.85354 9.69725C2.06534 11.1782 2.17124 11.9188 2.39578 12.5135C2.81568 13.6256 3.54152 14.454 4.40786 14.8098C4.87114 15 5.4141 15 6.50001 15C7.58591 15 8.12888 15 8.59216 14.8098C9.45849 14.454 10.1843 13.6256 10.6042 12.5135C10.8288 11.9188 10.9347 11.1783 11.1465 9.69724ZM5.57143 7.04819C5.57143 6.74876 5.32199 6.50602 5.01429 6.50602C4.70658 6.50602 4.45714 6.74876 4.45714 7.04819V12.8313C4.45714 13.1308 4.70658 13.3735 5.01429 13.3735C5.32199 13.3735 5.57143 13.1308 5.57143 12.8313V7.04819ZM8.54286 7.04819C8.54286 6.74876 8.29342 6.50602 7.98571 6.50602C7.67801 6.50602 7.42857 6.74876 7.42857 7.04819V12.8313C7.42857 13.1308 7.67801 13.3735 7.98571 13.3735C8.29342 13.3735 8.54286 13.1308 8.54286 12.8313V7.04819Z" fill="#AA0000"/>
<path d="M6.5 0C4.55122 0 2.97143 1.53734 2.97143 3.43373V3.61446H0.557143C0.249441 3.61446 0 3.8572 0 4.15663C0 4.45606 0.249441 4.6988 0.557143 4.6988H12.4429C12.7506 4.6988 13 4.45606 13 4.15663C13 3.8572 12.7506 3.61446 12.4429 3.61446H10.0286V3.43373C10.0286 1.53734 8.44878 0 6.5 0Z" fill="#AA0000"/>
</svg>
